<svg width="38" height="43" viewBox="0 0 38 43" fill="none" xmlns="http://www.w3.org/2000/svg">
<g id="Vector">
<path d="M9.23047 5.05268C13.8302 2.43384 17.7493 0.218693 17.9453 0.146235C18.1412 0.0634258 18.5434 0.00131891 18.8219 0.00131891C19.1107 -0.00903224 19.5026 0.0427235 19.6985 0.115182C19.8945 0.177288 21.194 0.891518 22.5863 1.67821C23.9786 2.47524 27.2686 4.35915 29.9088 5.87042C32.549 7.37134 35.2099 8.89296 35.8287 9.2449C36.4371 9.58648 37.0766 10.0316 37.2416 10.2076C37.4066 10.3939 37.5819 10.7251 37.6438 10.9321C37.7057 11.1806 37.7469 15.1243 37.7469 21.6249C37.7469 31.355 37.7366 31.945 37.551 32.3383C37.4479 32.566 37.2106 32.8973 37.0147 33.0629C36.8187 33.2389 35.5914 33.9841 34.292 34.7294C32.9925 35.4851 29.8985 37.2448 27.4336 38.6525C24.9687 40.0603 22.2563 41.6129 19.8532 43H17.8937L9.4883 38.1971C4.86791 35.5575 0.928203 33.2699 0.742563 33.125C0.546609 32.9801 0.309401 32.6695 0.195954 32.4418C0.0103134 32.0381 0 31.6448 0 21.5524C0 12.8781 0.0206267 11.0046 0.144387 10.7355C0.216581 10.5491 0.412535 10.2697 0.577549 10.1144C0.742563 9.95912 4.64102 7.68187 9.23047 5.05268Z" fill="#14BF96"/>
<path d="M16.6045 9.68999C16.8624 9.54508 17.3265 9.34841 17.6359 9.2656C17.9453 9.18279 18.4816 9.11033 18.8219 9.11033C19.1622 9.09998 19.6779 9.16209 19.9564 9.23454C20.2451 9.31735 20.7093 9.48297 20.9877 9.62789C21.2765 9.76245 21.7612 10.1351 22.0809 10.4456C22.4522 10.8079 22.7822 11.2634 22.9885 11.6878C23.1638 12.0604 23.3598 12.6608 23.432 13.0334C23.5248 13.551 23.5248 13.8822 23.432 14.4308C23.3701 14.8242 23.1741 15.4452 22.9988 15.8075C22.8235 16.1698 22.4522 16.6874 22.1222 17.0186C21.7922 17.3498 21.2765 17.7225 20.9155 17.8985C20.5546 18.0744 19.9357 18.2711 19.5438 18.3332C18.9972 18.4264 18.6569 18.4264 18.1515 18.3332C17.7803 18.2711 17.1511 18.0537 16.7592 17.8571C16.3158 17.6397 15.8517 17.3084 15.5629 16.9979C15.305 16.7288 14.975 16.294 14.8203 16.0352C14.6759 15.7765 14.48 15.29 14.3872 14.9484C14.3046 14.6068 14.2325 14.0375 14.2325 13.6855C14.2325 13.3232 14.315 12.7643 14.4181 12.4434C14.5212 12.1122 14.7275 11.636 14.8719 11.3772C15.0163 11.1185 15.3669 10.6941 15.6351 10.4353C15.9135 10.1765 16.3467 9.84526 16.6045 9.68999Z" fill="white"/>
<path d="M4.37287 19.8652C4.34193 19.3269 4.34193 18.5609 4.3935 18.1676L4.48632 17.4534L5.46609 17.5258C6.00238 17.5569 6.83777 17.6811 7.32249 17.7846C7.80722 17.8985 8.54979 18.1158 8.97263 18.2607C9.39548 18.416 10.1071 18.7265 10.5506 18.9439C10.9837 19.1716 11.5922 19.5029 11.8913 19.6996C12.1801 19.8859 12.7989 20.3413 13.2424 20.7036C13.6962 21.0659 14.3975 21.7387 14.7894 22.2045C15.1916 22.66 15.7485 23.3846 16.0373 23.809C16.3158 24.2334 16.7489 24.9683 16.9861 25.4548C17.2336 25.9413 17.5946 26.8211 17.7906 27.4215C17.9762 28.0219 18.2134 28.9017 18.3062 29.3882C18.3887 29.8747 18.5022 30.7649 18.5434 31.386L18.544 31.3947C18.6156 32.4833 18.6163 32.4936 18.8735 32.4936C19.1306 32.4936 19.1313 32.4833 19.2131 31.2924L19.2138 31.2825C19.2551 30.6097 19.3788 29.6367 19.482 29.1295C19.5954 28.6222 19.8017 27.8252 19.9564 27.3698C20.1008 26.9143 20.4308 26.1173 20.6783 25.6101C20.9258 25.1029 21.3177 24.3783 21.5549 24.0056C21.8025 23.633 22.3285 22.9395 22.7307 22.453C23.1329 21.9768 23.8136 21.2833 24.2364 20.921C24.6593 20.5587 25.309 20.0618 25.6803 19.8134C26.0516 19.565 26.7219 19.182 27.1757 18.9543C27.6295 18.7265 28.3515 18.416 28.7743 18.2607C29.1972 18.1055 29.9397 17.8985 30.4244 17.7846C30.9092 17.6811 31.7549 17.5569 33.3019 17.4327L33.3328 18.209C33.3534 18.6334 33.3328 19.4718 33.3019 20.0722C33.2606 20.6726 33.1575 21.5524 33.0544 22.0389C32.9512 22.5254 32.7656 23.2707 32.6212 23.6951C32.4871 24.1195 32.1571 24.9372 31.8786 25.5066C31.6105 26.0759 31.0948 26.9868 30.7338 27.525C30.3626 28.0633 29.5994 28.9742 29.0321 29.5435C28.4649 30.1128 27.5883 30.8684 27.0726 31.21C26.5672 31.562 25.8453 31.9967 25.474 32.183C25.1027 32.3694 24.5768 32.6178 24.288 32.7317C24.0095 32.8455 23.3804 33.0422 22.8957 33.1871C22.411 33.3217 21.5756 33.4976 21.0393 33.5804C20.503 33.6633 19.5232 33.7357 18.8735 33.7357C18.2237 33.7357 17.2233 33.6633 16.6561 33.5804C16.0889 33.4976 15.2122 33.301 14.6966 33.1664C14.1912 33.0215 13.1702 32.5971 12.4276 32.2348C11.6954 31.8725 10.695 31.2721 10.2102 30.9099C9.72551 30.5372 8.94169 29.8333 8.45696 29.3261C7.97224 28.8189 7.28124 27.9598 6.92027 27.4215C6.5593 26.8833 6.10552 26.1173 5.90956 25.7136C5.70329 25.3202 5.36295 24.4507 5.14637 23.7986C4.92979 23.1465 4.68227 22.2149 4.59976 21.7284C4.51726 21.2419 4.41412 20.4034 4.37287 19.8652Z" fill="white"/>
</g>
</svg>
